# xmcd CD database file
#
# Track frame offsets:
#	150
#	11331
#	24438
#	42447
#	52987
#	66037
#	77273
#	87309
#	97005
#	108202
#	118660
#	129522
#	142321
#	153106
#
# Disc length: 2170 seconds
#
# Revision: 2
# Processed by: cddbd v1.5.2PL0 Copyright (c) Steve Scherf et al.
# Submitted via: CDex 1.51
#
DISCID=aa08780e
DTITLE=John Lee Hooker - Blues Is The Healer  [CD 09-10]
DYEAR=2005
DGENRE=Jazz
TTITLE0=Boom, Boom
TTITLE1=I Want To Hug You
TTITLE2=House Rent Boogie
TTITLE3=Wand Ad Blues
TTITLE4=I'm So Excited
TTITLE5=Hard Headed Woman
TTITLE6=I Wanna Walk
TTITLE7=Onions
TTITLE8=What Do You Say
TTITLE9=Keep Your Hands To Yourself
TTITLE10=Send Me Your Pillow
TTITLE11=She Shot Me Down
TTITLE12=I Want To Shout
TTITLE13=I'm Leaving  (Baby)
EXTD=10 CD Set YEAR: 2005
EXTT0=
EXTT1=
EXTT2=
EXTT3=
EXTT4=
EXTT5=
EXTT6=
EXTT7=
EXTT8=
EXTT9=
EXTT10=
EXTT11=
EXTT12=
EXTT13=
PLAYORDER=
